# xmcd
#
# Track frame offsets: 
#        150
#        19626
#        38413
#        55574
#        66526
#        81289
#        94787
#        113789
#        137899
#        157576
#        167343
#        183523
#        192824
#        207442
#        221541
#        235553
#
# Disc length: 3288 seconds
#
# Revision: 0
# Processed by: cddbd v1.5.2PL0 Copyright (c) Steve Scherf et al.
# Submitted via: ExactAudioCopy v1.1
#
DISCID=c80cd610
DTITLE=Donald Mayhem - Skywritters
DYEAR=2015
DGENRE=Hip-Hop
TTITLE0=Skywritters
TTITLE1=24 Terabytes
TTITLE2=Streetwalkers
TTITLE3=Cipher Session
TTITLE4=Flatlines feat. Dee Jackson of 80's Babies
TTITLE5=Whatup
TTITLE6=Anteyemater ft. Rita J
TTITLE7=Policy Kings ft. Race of The Primeridian
TTITLE8=American Skies Pt. 3
TTITLE9=Chatham Speaks Pt. 3
TTITLE10=Cloak x Dagger ft. Adad
TTITLE11=After That
TTITLE12=Nightmare
TTITLE13=Blacklist
TTITLE14=Busy Signal
TTITLE15=C.A.V.U. [outro]
EXTD=
EXTT0=
EXTT1=
EXTT2=
EXTT3=
EXTT4=
EXTT5=
EXTT6=
EXTT7=
EXTT8=
EXTT9=
EXTT10=
EXTT11=
EXTT12=
EXTT13=
EXTT14=
EXTT15=
PLAYORDER=
